<?xml version="1.0" encoding="UTF-8" standalone="no"?>
<!DOCTYPE svg PUBLIC "-//W3C//DTD SVG 1.1//EN" "http://www.w3.org/Graphics/SVG/1.1/DTD/svg11.dtd">
<svg width="100%" height="100%" viewBox="0 0 58 58" version="1.1" xmlns="http://www.w3.org/2000/svg" xmlns:xlink="http://www.w3.org/1999/xlink" xml:space="preserve" xmlns:serif="http://www.serif.com/" style="fill-rule:evenodd;clip-rule:evenodd;stroke-linejoin:round;stroke-miterlimit:2;">
    <g transform="matrix(1,0,0,1,-192.735,-16.431)">
        <path d="M249.99,69.448L239.201,69.448L234.41,62.836C233.235,63.886 231.984,64.875 230.658,65.805C229.363,66.704 227.992,67.499 226.545,68.189C225.099,68.848 223.607,69.373 222.07,69.763C220.564,70.153 219.027,70.348 217.46,70.348C214.055,70.348 210.845,69.778 207.832,68.638C204.849,67.499 202.227,65.85 199.967,63.691C197.737,61.502 195.974,58.833 194.679,55.684C193.383,52.536 192.735,48.952 192.735,44.934C192.735,41.186 193.383,37.753 194.679,34.634C195.974,31.485 197.737,28.787 199.967,26.538C202.227,24.289 204.849,22.55 207.832,21.32C210.845,20.061 214.055,19.431 217.46,19.431C219.027,19.431 220.579,19.626 222.115,20.016C223.652,20.406 225.144,20.945 226.59,21.635C228.037,22.325 229.408,23.134 230.704,24.064C232.029,24.994 233.265,25.998 234.41,27.078L239.201,21.365L249.99,21.365L249.99,69.448Z" style="fill:rgb(237,113,109);fill-rule:nonzero;"/>
    </g>
    <g transform="matrix(1,0,0,1,-192.735,-16.431)">
        <circle cx="213.25" cy="39.25" r="8.25" style="fill:white;"/>
    </g>
</svg>
