<svg width="99" height="27" viewBox="0 0 99 27" fill="none" xmlns="http://www.w3.org/2000/svg">
<path d="M4.00088 21.0685H0V1.50099H13.9961V5.41722H4.00088V9.33345H9.99523V13.2497H4.00088V21.0685Z" fill="black"/>
<path d="M20.1438 2.48346C20.1438 2.82915 20.0741 3.15209 19.9347 3.45229C19.8046 3.75248 19.6234 4.0163 19.391 4.24372C19.1587 4.46205 18.8845 4.63944 18.5686 4.77589C18.2619 4.90325 17.9319 4.96693 17.5788 4.96693C17.2256 4.96693 16.8911 4.90325 16.5751 4.77589C16.2684 4.63944 15.9989 4.46205 15.7665 4.24372C15.5435 4.0163 15.3623 3.75248 15.2229 3.45229C15.0928 3.15209 15.0277 2.82915 15.0277 2.48346C15.0277 2.14688 15.0928 1.82848 15.2229 1.52828C15.3623 1.21899 15.5435 0.955178 15.7665 0.736852C15.9989 0.509428 16.2684 0.332038 16.5751 0.204681C16.8911 0.068227 17.2256 0 17.5788 0C17.9319 0 18.2619 0.068227 18.5686 0.204681C18.8845 0.332038 19.1587 0.509428 19.391 0.736852C19.6234 0.955178 19.8046 1.21899 19.9347 1.52828C20.0741 1.82848 20.1438 2.14688 20.1438 2.48346ZM19.4886 21.0685H15.655V6.45427H19.4886V21.0685Z" fill="black"/>
<path d="M30.5991 21.0685H21.9003V17.3569H30.5991C30.8593 17.3569 31.0823 17.266 31.2682 17.084C31.4541 16.9021 31.547 16.6838 31.547 16.4291C31.547 16.1653 31.4541 15.9924 31.2682 15.9105C31.0823 15.8287 30.8593 15.7877 30.5991 15.7877H26.64C25.9802 15.7877 25.3621 15.6649 24.7859 15.4193C24.2097 15.1737 23.7079 14.8416 23.2804 14.4232C22.8529 13.9956 22.5137 13.4998 22.2627 12.9358C22.0211 12.3718 21.9003 11.7669 21.9003 11.121C21.9003 10.4751 22.0211 9.87017 22.2627 9.30616C22.5137 8.74215 22.8529 8.25092 23.2804 7.83246C23.7079 7.414 24.2097 7.08651 24.7859 6.84999C25.3621 6.60437 25.9802 6.48156 26.64 6.48156H34.349V10.1931H26.64C26.3798 10.1931 26.1567 10.2841 25.9709 10.466C25.785 10.648 25.6921 10.8663 25.6921 11.121C25.6921 11.3848 25.785 11.6122 25.9709 11.8033C26.1567 11.9852 26.3798 12.0762 26.64 12.0762H30.5991C31.2496 12.0762 31.863 12.1853 32.4392 12.4037C33.0154 12.6129 33.5173 12.9085 33.9448 13.2906C34.3723 13.6727 34.7115 14.1321 34.9624 14.6688C35.2133 15.2055 35.3388 15.7923 35.3388 16.4291C35.3388 17.0749 35.2133 17.6799 34.9624 18.2439C34.7115 18.7988 34.3723 19.29 33.9448 19.7176C33.5173 20.1361 33.0154 20.4681 32.4392 20.7137C31.863 20.9502 31.2496 21.0685 30.5991 21.0685Z" fill="black"/>
<path d="M41.1798 21.0685H37.3741V0.641334H41.1798V7.09561C41.6352 6.75902 42.1045 6.5225 42.5878 6.38605C43.071 6.2405 43.5636 6.16772 44.0655 6.16772C44.9855 6.16772 45.8498 6.34056 46.6584 6.68625C47.4669 7.02283 48.1686 7.49132 48.7634 8.09172C49.3674 8.68302 49.8414 9.37894 50.1853 10.1795C50.5384 10.9709 50.715 11.8169 50.715 12.7175V21.0685H46.8814V12.7175H46.9093C46.9093 12.3354 46.8349 11.9761 46.6862 11.6395C46.5375 11.2938 46.3331 10.9936 46.0729 10.7389C45.8126 10.4842 45.5106 10.2841 45.1667 10.1385C44.8229 9.99298 44.4558 9.92021 44.0655 9.92021C43.6658 9.92021 43.2894 9.99298 42.9363 10.1385C42.5831 10.2841 42.2764 10.4842 42.0162 10.7389C41.756 10.9936 41.5515 11.2938 41.4028 11.6395C41.2542 11.9761 41.1798 12.3354 41.1798 12.7175V21.0685Z" fill="black"/>
<path d="M46.8814 27V23.2748H48.9864C49.4975 23.2748 50.8498 23.102 51.2866 22.8927C51.7234 22.6926 52.0997 22.4197 52.4157 22.074C52.741 21.7374 52.9966 21.0503 53.1824 20.6046C53.3683 20.1588 53.4613 19.6903 53.4613 19.1991V6.45427H57.3506V19.1991H57.3227C57.3134 19.8813 57.2159 20.5409 57.03 21.1777C56.8534 22.1104 56.5978 22.7017 56.2633 23.2475C55.9287 23.8024 55.5291 24.3028 55.0644 24.7485C54.5997 25.2034 54.0839 25.59 53.517 25.9084C52.9594 26.2359 52.36 26.486 51.7187 26.6589C51.0682 26.8408 49.5161 27 48.8191 27H46.8814Z" fill="black"/>
<path d="M77.0997 21.0685H73.7724L72.2947 19.0626C71.9322 19.381 71.5465 19.6812 71.1376 19.9632C70.738 20.2361 70.3151 20.4772 69.869 20.6864C69.423 20.8866 68.9629 21.0458 68.489 21.164C68.0243 21.2823 67.5503 21.3414 67.067 21.3414C66.0169 21.3414 65.0271 21.1686 64.0977 20.8229C63.1777 20.4772 62.3691 19.9769 61.6721 19.3219C60.9844 18.6578 60.4407 17.8482 60.0411 16.893C59.6415 15.9378 59.4417 14.8507 59.4417 13.6318C59.4417 12.4946 59.6415 11.453 60.0411 10.507C60.4407 9.55178 60.9844 8.73306 61.6721 8.05079C62.3691 7.36852 63.1777 6.84089 64.0977 6.46792C65.0271 6.08585 66.0169 5.89481 67.067 5.89481C67.5503 5.89481 68.0289 5.95394 68.5029 6.0722C68.9769 6.19046 69.4369 6.35421 69.883 6.56344C70.3291 6.77267 70.7519 7.01828 71.1516 7.30029C71.5605 7.58229 71.9415 7.88704 72.2947 8.21453L73.7724 6.48156H77.0997V21.0685Z" fill="#ED716D"/>
<path d="M99 21.0685H95.2082V11.7896C95.2082 11.5349 95.1571 11.2938 95.0549 11.0664C94.962 10.839 94.8272 10.6389 94.6506 10.466C94.474 10.2932 94.2696 10.1613 94.0372 10.0703C93.8049 9.97024 93.5586 9.92021 93.2984 9.92021C93.0382 9.92021 92.7919 9.97024 92.5596 10.0703C92.3365 10.1613 92.1367 10.2932 91.9601 10.466C91.7928 10.6389 91.6581 10.839 91.5559 11.0664C91.4629 11.2938 91.4164 11.5349 91.4164 11.7896V21.0685H87.6107V11.7896C87.6107 11.5349 87.5596 11.2938 87.4574 11.0664C87.3645 10.839 87.2297 10.6389 87.0531 10.466C86.8765 10.2932 86.6721 10.1613 86.4397 10.0703C86.2074 9.97024 85.9611 9.92021 85.7009 9.92021C85.4407 9.92021 85.1944 9.97024 84.9621 10.0703C84.739 10.1613 84.5392 10.2932 84.3626 10.466C84.1954 10.6389 84.0606 10.839 83.9584 11.0664C83.8654 11.2938 83.819 11.5349 83.819 11.7896V21.0685H80.0132V6.45427H80.9333L81.9649 7.5732C82.4946 7.13654 83.0755 6.79996 83.7074 6.56344C84.3487 6.31782 85.0132 6.19501 85.7009 6.19501C86.3979 6.19501 87.0763 6.32237 87.7362 6.57708C88.4053 6.8318 88.9908 7.273 89.4927 7.90069C89.725 7.59139 89.9899 7.32758 90.2873 7.10925C90.5847 6.89093 90.896 6.71354 91.2213 6.57708C91.5559 6.44063 91.8997 6.34511 92.2529 6.29053C92.606 6.22685 92.9545 6.19501 93.2984 6.19501C94.0884 6.19501 94.8272 6.34056 95.5149 6.63166C96.2119 6.92277 96.816 7.32303 97.3272 7.83246C97.8476 8.33279 98.2565 8.92409 98.5539 9.60636C98.8513 10.2886 99 11.0164 99 11.7896V21.0685Z" fill="black"/>
<circle cx="65.5" cy="11.5" r="2.5" fill="#FCF6E7"/>
</svg>
